<svg xmlns="http://www.w3.org/2000/svg" viewBox="0 0 281.54 48.73"><defs><style>.cls-1,.cls-2{fill:#fff;}.cls-1{fill-rule:evenodd;}</style></defs><title>Asset 1</title><g id="Layer_2" data-name="Layer 2"><g id="Layer_1-2" data-name="Layer 1"><polygon class="cls-1" points="34.71 8.84 47.34 0 47.34 39.88 34.71 48.73 34.71 8.84"/><polygon class="cls-1" points="15.87 8.84 28.5 0 28.5 39.88 15.87 48.73 15.87 8.84"/><polygon class="cls-1" points="0 48.73 12.63 48.73 12.63 39.88 0 48.73"/><polygon class="cls-1" points="63.21 26.74 63.21 39.88 50.58 48.73 50.58 35.58 63.21 26.74"/><path class="cls-2" d="M274.75,38a8.7,8.7,0,0,1-2.55-.38,9.54,9.54,0,0,1-2.32-1.06h0a8.83,8.83,0,0,1-1.38-1.06c-.4-.38-.67-.66-.83-.83l3-2.75a4.43,4.43,0,0,0,.65.62,8.07,8.07,0,0,0,1,.68,7.8,7.8,0,0,0,1.21.56,3.35,3.35,0,0,0,1.2.23,4.67,4.67,0,0,0,1-.11,3.32,3.32,0,0,0,.89-.36,2.15,2.15,0,0,0,.66-.65,1.81,1.81,0,0,0,.25-1,1,1,0,0,0-.16-.5,2.17,2.17,0,0,0-.54-.59,7,7,0,0,0-1.07-.67c-.46-.24-1-.49-1.72-.76a23.49,23.49,0,0,1-2.24-1A7.61,7.61,0,0,1,270,27.14a5.08,5.08,0,0,1-1.18-1.63,5.21,5.21,0,0,1-.41-2.12,5.78,5.78,0,0,1,.46-2.31,5.49,5.49,0,0,1,1.3-1.86,6,6,0,0,1,2-1.23,7.31,7.31,0,0,1,2.62-.44,7.07,7.07,0,0,1,1.65.2,12.33,12.33,0,0,1,1.7.51,10.18,10.18,0,0,1,1.56.73,7,7,0,0,1,1.22.85l-2.46,3.09c-.37-.25-.74-.48-1.12-.69a9.18,9.18,0,0,0-1.12-.48,3.58,3.58,0,0,0-1.29-.23,3.23,3.23,0,0,0-1.87.47,1.57,1.57,0,0,0-.68,1.36,1.15,1.15,0,0,0,.25.73,2.52,2.52,0,0,0,.65.6,6.15,6.15,0,0,0,1,.51c.37.15.75.29,1.15.43A19.43,19.43,0,0,1,278.33,27a8.05,8.05,0,0,1,1.9,1.43,4.65,4.65,0,0,1,1,1.63,5.88,5.88,0,0,1,.3,1.91,5.69,5.69,0,0,1-.51,2.38,6,6,0,0,1-1.42,1.93,6.52,6.52,0,0,1-2.15,1.29,7.46,7.46,0,0,1-2.71.48m-21-16.28v4h6.5v4h-6.5v4h8.91v4h-12.9v-20h12.9v4ZM233.11,26.2h3.39a3.21,3.21,0,0,0,2.23-.67,2.12,2.12,0,0,0,.72-1.6,2,2,0,0,0-.72-1.56,3.26,3.26,0,0,0-2.23-.64h-3.39Zm0,11.6h-4v-20h8.11a6,6,0,0,1,2.38.48,6.47,6.47,0,0,1,2,1.33,6.4,6.4,0,0,1,1.35,2,5.86,5.86,0,0,1,.5,2.4,6.08,6.08,0,0,1-.49,2.44,6.16,6.16,0,0,1-1.33,2,6.47,6.47,0,0,1-2,1.32,6,6,0,0,1-2.39.48h-4.13ZM212.05,21.53a6.15,6.15,0,0,0-2.42.48,6.49,6.49,0,0,0-2,1.35,6.35,6.35,0,0,0-1.35,2,6.2,6.2,0,0,0-.48,2.43,5.8,5.8,0,0,0,.5,2.42,6.35,6.35,0,0,0,1.34,2,6.22,6.22,0,0,0,2,1.33,6.21,6.21,0,0,0,8.14-8.16,6.52,6.52,0,0,0-1.35-2,6.28,6.28,0,0,0-2-1.35A6.12,6.12,0,0,0,212.05,21.53Zm0,16.48a10.16,10.16,0,0,1-3.75-.72,10.36,10.36,0,0,1-3.28-2,10.17,10.17,0,0,1-2.42-11.31A10.25,10.25,0,0,1,208,18.39a9.86,9.86,0,0,1,4.08-.84,10.09,10.09,0,0,1,3.83.75,10.49,10.49,0,0,1,3.27,2.13,10.38,10.38,0,0,1,2.27,3.25,9.72,9.72,0,0,1,.86,4.12,9.91,9.91,0,0,1-.76,3.83,10.29,10.29,0,0,1-2.12,3.27,10.14,10.14,0,0,1-3.24,2.26A9.94,9.94,0,0,1,212.05,38Zm-13.32-.21H186.66v-20h4V33.82h8.08ZM160.67,21.53a6.15,6.15,0,0,0-2.42.48,6.49,6.49,0,0,0-2,1.35,6.35,6.35,0,0,0-1.35,2,6.2,6.2,0,0,0-.48,2.43,5.8,5.8,0,0,0,.5,2.42,6.35,6.35,0,0,0,1.34,2,6.22,6.22,0,0,0,2,1.33,6.23,6.23,0,0,0,6.82-1.33,6.19,6.19,0,0,0,1.34-2,6.11,6.11,0,0,0,.48-2.42,6,6,0,0,0-.5-2.43,6.35,6.35,0,0,0-1.35-2,6.28,6.28,0,0,0-2-1.35A6.12,6.12,0,0,0,160.67,21.53Zm0,16.48a10.16,10.16,0,0,1-3.75-.72,10.36,10.36,0,0,1-3.28-2,10.17,10.17,0,0,1-2.42-11.31,10.6,10.6,0,0,1,2.13-3.28,10.37,10.37,0,0,1,3.24-2.26,9.86,9.86,0,0,1,4.08-.84,10.09,10.09,0,0,1,3.83.75,10.49,10.49,0,0,1,3.27,2.13A10.38,10.38,0,0,1,170,23.68a9.72,9.72,0,0,1,.86,4.12,9.91,9.91,0,0,1-.76,3.83,10.24,10.24,0,0,1-5.35,5.53A10,10,0,0,1,160.67,38Zm-21.2-7.86-2.07-4.64-2.06,4.64Zm-1.23-12.6,9,20.25h-4.38l-1.64-3.66h-7.65L132.78,36c-.3.66-.56,1.27-.79,1.82h-4.36l8.91-20.25Zm-24.1,4a6.2,6.2,0,0,0-2.43.48,6.61,6.61,0,0,0-2,1.35,6.16,6.16,0,0,0-1.34,2,6,6,0,0,0-.49,2.43,5.8,5.8,0,0,0,.5,2.42,6.21,6.21,0,0,0,1.35,2,6.21,6.21,0,0,0,8.79,0,6.19,6.19,0,0,0,1.34-2,6.11,6.11,0,0,0,.48-2.42,5.87,5.87,0,0,0-.5-2.43A6.3,6.3,0,0,0,116.53,22,6.07,6.07,0,0,0,114.14,21.53Zm0,16.48a10.21,10.21,0,0,1-3.76-.72,10.48,10.48,0,0,1-3.28-2,10.22,10.22,0,0,1-2.42-11.31,10.79,10.79,0,0,1,2.13-3.28,10.37,10.37,0,0,1,3.24-2.26,9.88,9.88,0,0,1,4.09-.84,10.08,10.08,0,0,1,3.82.75,10.38,10.38,0,0,1,5.55,5.38,9.87,9.87,0,0,1,.86,4.12,10.1,10.1,0,0,1-.76,3.83,10.65,10.65,0,0,1-2.12,3.27,10.37,10.37,0,0,1-3.24,2.26A9.94,9.94,0,0,1,114.14,38ZM91.93,38a5.69,5.69,0,0,1-2.18-.46,5.47,5.47,0,0,1-1.89-1.32l.06,0-.81-.66,2.75-2.9.81.75a4.21,4.21,0,0,0,.58.41,1.32,1.32,0,0,0,.68.16,1.67,1.67,0,0,0,1.24-.51,1.71,1.71,0,0,0,.5-1.24V17.75h4V32.27a5.6,5.6,0,0,1-.43,2.17A5.81,5.81,0,0,1,96,36.27a5.93,5.93,0,0,1-1.82,1.26A5.35,5.35,0,0,1,91.93,38Z"/><polygon class="cls-1" points="142.44 10.72 139.65 14.71 132.39 14.71 135.18 10.72 142.44 10.72"/></g></g></svg>